HIERARCHY
ROOT Hips
{
	OFFSET 0.000000 0.000000 0.000000
	CHANNELS 6 Xposition Yposition Zposition Xrotation Yrotation Zrotation
	JOINT LeftUpLeg_virtual
	{
		OFFSET 0.000000 0.000000 0.000000
		CHANNELS 3 Xrotation Yrotation Zrotation
		JOINT LeftUpLeg
		{
			OFFSET 13.026900 -6.336304 -1.092800
			CHANNELS 3 Xrotation Yrotation Zrotation
			JOINT LeftLeg
			{
				OFFSET 0.524474 -46.096886 9.782700
				CHANNELS 3 Xrotation Yrotation Zrotation
				JOINT LeftFoot
				{
					OFFSET -0.524474 -53.427422 -12.948200
					CHANNELS 3 Xrotation Yrotation Zrotation
					JOINT LeftToeBase
					{
						OFFSET 0.192200 -14.009700 16.364100
						CHANNELS 3 Xrotation Yrotation Zrotation
						JOINT LeftToe_End
						{
							OFFSET -1.784700 -0.561700 9.474800
							CHANNELS 3 Xrotation Yrotation Zrotation
							End Site
							{
								OFFSET 0 0 0
							}
						}
					}
				}
			}
		}
	}
	JOINT RightUpLeg_virtual
	{
		OFFSET 0.000000 0.000000 0.000000
		CHANNELS 3 Xrotation Yrotation Zrotation
		JOINT RightUpLeg
		{
			OFFSET -12.883000 -6.336304 -1.092800
			CHANNELS 3 Xrotation Yrotation Zrotation
			JOINT RightLeg
			{
				OFFSET -0.524587 -46.096825 9.782800
				CHANNELS 3 Xrotation Yrotation Zrotation
				JOINT RightFoot
				{
					OFFSET 0.524587 -53.427383 -12.948300
					CHANNELS 3 Xrotation Yrotation Zrotation
					JOINT RightToeBase
					{
						OFFSET -0.192200 -14.009700 16.364100
						CHANNELS 3 Xrotation Yrotation Zrotation
						JOINT RightToe_End
						{
							OFFSET 1.784700 -0.561700 9.474800
							CHANNELS 3 Xrotation Yrotation Zrotation
							End Site
							{
								OFFSET 0 0 0
							}
						}
					}
				}
			}
		}
	}
	JOINT Spine_virtual
	{
		OFFSET 0.000000 0.000000 0.000000
		CHANNELS 3 Xrotation Yrotation Zrotation
		JOINT Spine
		{
			OFFSET 0.072000 7.257294 -0.789700
			CHANNELS 3 Xrotation Yrotation Zrotation
			JOINT Spine1
			{
				OFFSET 0.000000 12.508769 -0.658067
				CHANNELS 3 Xrotation Yrotation Zrotation
				JOINT Spine1_split
				{
					OFFSET 0.000000 12.508769 -0.658067
					CHANNELS 3 Xrotation Yrotation Zrotation
					JOINT Spine2
					{
						OFFSET 0.000000 12.508769 -0.658067
						CHANNELS 3 Xrotation Yrotation Zrotation
						JOINT Neck_virtual
						{
							OFFSET 0.000000 0.000000 0.000000
							CHANNELS 3 Xrotation Yrotation Zrotation
							JOINT Neck
							{
								OFFSET 0.000000 14.033295 7.520400
								CHANNELS 3 Xrotation Yrotation Zrotation
								JOINT Head
								{
									OFFSET 0.000000 8.198502 5.703100
									CHANNELS 3 Xrotation Yrotation Zrotation
									JOINT HeadTop_End
									{
										OFFSET 0.000000 17.760803 13.332701
										CHANNELS 3 Xrotation Yrotation Zrotation
										End Site
										{
											OFFSET 0 0 0
										}
									}
								}
							}
						}
						JOINT LeftShoulder_virtual
						{
							OFFSET 0.000000 0.000000 0.000000
							CHANNELS 3 Xrotation Yrotation Zrotation
							JOINT LeftShoulder
							{
								OFFSET 6.292450 5.785301 -0.669000
								CHANNELS 3 Xrotation Yrotation Zrotation
								JOINT LeftShoulder_split
								{
									OFFSET 6.292450 5.785301 -0.669000
									CHANNELS 3 Xrotation Yrotation Zrotation
									JOINT LeftArm
									{
										OFFSET 13.907140 -6.093903 1.965100
										CHANNELS 3 Xrotation Yrotation Zrotation
										JOINT LeftForeArm
										{
											OFFSET 34.140198 0.000000 0.000000
											CHANNELS 3 Xrotation Yrotation Zrotation
											JOINT LeftHand
											{
												OFFSET 40.960209 0.000000 0.000000
												CHANNELS 3 Xrotation Yrotation Zrotation
												End Site
												{
													OFFSET 0 0 0
												}
											}
										}
									}
								}
							}
						}
						JOINT RightShoulder_virtual
						{
							OFFSET 0.000000 0.000000 0.000000
							CHANNELS 3 Xrotation Yrotation Zrotation
							JOINT RightShoulder
							{
								OFFSET -6.292450 5.785301 -0.669000
								CHANNELS 3 Xrotation Yrotation Zrotation
								JOINT RightShoulder_split
								{
									OFFSET -6.292450 5.785301 -0.669000
									CHANNELS 3 Xrotation Yrotation Zrotation
									JOINT RightArm
									{
										OFFSET -13.907140 -6.093903 1.965100
										CHANNELS 3 Xrotation Yrotation Zrotation
										JOINT RightForeArm
										{
											OFFSET -34.140198 0.000000 0.000000
											CHANNELS 3 Xrotation Yrotation Zrotation
											JOINT RightHand
											{
												OFFSET -40.960209 0.000000 0.000000
												CHANNELS 3 Xrotation Yrotation Zrotation
												End Site
												{
													OFFSET 0 0 0
												}
											}
										}
									}
								}
							}
						}
					}
				}
			}
		}
	}
}
MOTION
Frames: 8
Frame Time: 0.03333333
20.504200 18.180077 1.422260 0.000000 0.000000 0.000000 -85.805283 65.910103 2.885465 -100.093287 12.990390 3.821782 82.421710 22.541139 -1.693903 21.541570 -2.176432 5.921885 2.181217 0.508473 -0.684787 0.000000 0.000000 0.000000 -95.228929 70.315937 11.158472 -20.087358 6.284706 4.953692 74.282426 -0.730637 -0.616723 13.826539 -5.927591 10.398785 -8.222313 -0.209289 1.002118 0.000000 0.000000 0.000000 -80.072507 67.207996 -5.625734 13.349110 -5.421029 -7.220214 11.414963 -4.263713 -4.862420 0.961944 -0.062337 0.518913 0.000000 0.000000 0.000000 9.904893 -5.406823 -3.586075 -3.413641 6.453509 -16.994854 -28.826134 13.831165 -14.118099 0.000000 0.000000 0.000000 10.356524 -4.849952 -4.053631 3.124339 -7.096911 31.042332 -3.308993 0.199254 -1.251976 -89.967279 26.424708 -56.659500 2.137481 -29.303615 0.938981 0.000000 0.000000 0.000000 11.209481 -4.944986 -3.763777 5.312197 11.531495 -17.862171 14.173017 3.433980 0.156739 -47.186451 34.110422 104.868348 175.968868 72.919885 -175.649653 0.000000 0.000000 0.000000 
20.543829 18.162567 1.338959 0.000000 0.000000 0.000000 -85.355686 65.854321 2.626429 -100.330800 13.131429 3.821027 82.176567 22.437605 -1.726015 21.432324 -2.512742 5.973205 2.147843 0.482035 -0.576708 0.000000 0.000000 0.000000 -94.464440 70.075193 10.285339 -20.178078 6.125362 4.967943 74.395944 -0.716358 -0.665561 13.868430 -5.831935 10.294166 -8.338100 -0.203314 1.011649 0.000000 0.000000 0.000000 -79.611572 67.148382 -5.820720 13.255243 -5.408219 -7.163484 11.435396 -4.345563 -4.801182 1.143795 0.227243 0.399720 0.000000 0.000000 0.000000 9.785353 -5.510218 -3.547729 -3.308066 6.384882 -17.025111 -28.673544 13.507003 -14.157749 0.000000 0.000000 0.000000 10.378513 -4.937780 -3.953667 3.006404 -6.934102 30.749870 -2.894780 -0.069085 -0.736230 -89.925635 26.159739 -56.886163 2.069819 -29.549540 0.770546 0.000000 0.000000 0.000000 11.175947 -5.046187 -3.710937 5.297099 11.642337 -17.596594 14.489901 3.340301 0.213617 -47.222558 34.127477 105.019998 176.120499 72.818423 -175.776489 0.000000 0.000000 0.000000 
20.548233 18.094284 1.202423 0.000000 0.000000 0.000000 -85.100318 65.813606 2.471289 -100.579720 13.379762 3.933920 81.921391 22.307811 -1.793957 21.091879 -2.872788 6.206541 2.139005 0.443655 -0.483085 0.000000 0.000000 0.000000 -93.551059 69.813426 9.269841 -20.237255 5.931770 4.949839 74.527616 -0.569057 -0.735137 13.879162 -5.656785 10.436696 -8.585684 -0.205411 0.992454 0.000000 0.000000 0.000000 -79.290621 67.192280 -5.850460 13.180383 -5.391173 -7.019592 11.419807 -4.443172 -4.691087 1.054680 0.544993 0.068837 0.000000 0.000000 0.000000 9.623224 -5.633927 -3.471399 -2.906586 6.223548 -17.203503 -28.469311 12.988966 -14.175877 0.000000 0.000000 0.000000 10.364167 -5.040914 -3.796282 2.816906 -6.702742 30.449940 -2.411588 -0.274247 -0.066470 -89.688758 25.751061 -57.468344 2.157745 -29.211244 0.681260 0.000000 0.000000 0.000000 11.104800 -5.153430 -3.566751 5.219729 11.697067 -17.260800 14.612116 3.320579 0.182107 -47.131468 34.444610 105.034287 176.173200 73.141313 -175.911973 0.000000 0.000000 0.000000 
20.481730 18.000351 1.073559 0.000000 0.000000 0.000000 -85.085770 65.800198 2.489578 -100.770152 13.692694 4.122842 81.757549 22.168625 -1.886010 20.526827 -3.205393 6.637051 2.193235 0.396604 -0.424526 0.000000 0.000000 0.000000 -92.732085 69.578782 8.393462 -20.194878 5.694345 4.898609 74.550709 -0.344601 -0.841691 13.698664 -5.521472 10.734295 -8.834590 -0.213404 0.957555 0.000000 0.000000 0.000000 -79.166926 67.360145 -5.677538 13.137105 -5.345703 -6.844373 11.358607 -4.518081 -4.565803 0.889271 0.836776 -0.196778 0.000000 0.000000 0.000000 9.447612 -5.735090 -3.382112 -2.286428 5.949638 -17.512849 -28.244818 12.342923 -14.191530 0.000000 0.000000 0.000000 10.294850 -5.125204 -3.622334 2.609963 -6.460893 30.176561 -2.121517 -0.236108 0.421268 -89.412142 25.183239 -58.144588 2.353937 -28.476645 0.658285 0.000000 0.000000 0.000000 10.991017 -5.228247 -3.391232 5.130308 11.644208 -16.962495 14.451883 3.440947 0.148062 -47.008965 35.022574 104.942728 176.227063 73.629480 -176.135716 0.000000 0.000000 0.000000 
20.407293 17.925591 1.014385 0.000000 0.000000 0.000000 -85.171359 65.772987 2.573744 -100.900766 13.972338 4.326976 81.690265 21.955576 -1.930548 19.833167 -3.549354 7.108090 2.303524 0.351490 -0.407336 0.000000 0.000000 0.000000 -92.144033 69.376376 7.801688 -20.046950 5.407269 4.804421 74.513969 -0.086823 -0.975857 13.347723 -5.500155 11.154521 -8.972899 -0.227414 0.929576 0.000000 0.000000 0.000000 -79.288312 67.582099 -5.312527 13.118778 -5.254359 -6.685513 11.246586 -4.547697 -4.447811 0.833454 0.975491 -0.340515 0.000000 0.000000 0.000000 9.265316 -5.770457 -3.298503 -1.557142 5.588380 -17.911188 -28.072035 11.688475 -14.212658 0.000000 0.000000 0.000000 10.151869 -5.168459 -3.471278 2.444806 -6.295897 29.927908 -1.936933 0.144754 0.737586 -89.183938 24.392631 -58.687745 2.578231 -27.677033 0.652688 0.000000 0.000000 0.000000 10.820071 -5.243981 -3.234077 5.065328 11.518295 -16.716710 14.033810 3.603471 0.137665 -46.789805 35.772426 104.752931 176.318506 74.033158 -176.428485 0.000000 0.000000 0.000000 
20.352173 17.878387 0.944954 0.000000 0.000000 0.000000 -85.299897 65.720429 2.689983 -101.004824 14.167826 4.480324 81.683414 21.674740 -1.911746 19.024712 -3.934679 7.576964 2.405606 0.308701 -0.395051 0.000000 0.000000 0.000000 -92.026042 69.271635 7.710035 -19.817422 5.056325 4.665167 74.530608 0.174512 -1.088707 13.051066 -5.598580 11.773095 -9.088840 -0.247457 0.913005 0.000000 0.000000 0.000000 -79.571677 67.787326 -4.835041 13.097928 -5.115011 -6.577206 11.088173 -4.528513 -4.360829 0.692677 0.854692 -0.365942 0.000000 0.000000 0.000000 9.115631 -5.728194 -3.227741 -0.860886 5.241141 -18.341196 -28.022222 11.114279 -14.244037 0.000000 0.000000 0.000000 9.929745 -5.147342 -3.382093 2.355460 -6.255746 29.694435 -1.848556 0.761184 0.750359 -89.049206 23.302177 -58.929629 2.827350 -27.148851 0.636353 0.000000 0.000000 0.000000 10.607980 -5.192011 -3.124089 5.055460 11.422807 -16.466755 13.517178 3.693259 0.117807 -46.524127 36.563000 104.546714 176.484889 74.150842 -176.761607 0.000000 0.000000 0.000000 
20.303545 17.848129 0.868374 0.000000 0.000000 0.000000 -85.570051 65.631513 2.887401 -101.103021 14.286457 4.547684 81.701712 21.306840 -1.789609 18.174462 -4.374655 8.005170 2.452551 0.275024 -0.372405 0.000000 0.000000 0.000000 -92.578092 69.298758 8.262012 -19.572617 4.639463 4.512995 74.647178 0.453674 -1.159178 12.942461 -5.758311 12.757707 -9.398979 -0.272482 0.893963 0.000000 0.000000 0.000000 -80.092881 67.976003 -4.198085 13.092660 -4.950497 -6.533104 10.915784 -4.464569 -4.317602 0.602491 0.443672 -0.181414 0.000000 0.000000 0.000000 8.999164 -5.624696 -3.171065 -0.341662 4.977840 -18.764521 -28.079031 10.732846 -14.196809 0.000000 0.000000 0.000000 9.649342 -5.076902 -3.366713 2.334346 -6.353539 29.447510 -1.939902 1.470623 0.466405 -88.779414 21.887532 -58.982898 2.992752 -27.136123 0.563566 0.000000 0.000000 0.000000 10.362087 -5.087095 -3.058982 5.136625 11.508226 -16.130629 12.940184 3.640986 0.105100 -46.266779 37.326120 104.324200 176.873090 73.925924 -177.217632 0.000000 0.000000 0.000000 
20.317244 17.824356 0.787010 0.000000 0.000000 0.000000 -85.948170 65.558628 3.179816 -101.280162 14.314969 4.542816 81.827196 20.875664 -1.584715 17.477568 -4.807230 8.359318 2.445022 0.259317 -0.367459 0.000000 0.000000 0.000000 -93.597026 69.362845 9.157767 -19.325604 4.185048 4.388156 74.889514 0.759745 -1.182792 12.895220 -5.959862 14.063740 -9.868303 -0.297786 0.865273 0.000000 0.000000 0.000000 -80.803576 68.098270 -3.522775 13.098325 -4.799436 -6.511215 10.756820 -4.397063 -4.319070 0.606256 -0.106878 -0.042416 0.000000 0.000000 0.000000 8.905485 -5.502949 -3.117445 -0.112322 4.888187 -19.129236 -28.189794 10.544911 -13.983096 0.000000 0.000000 0.000000 9.349326 -4.987385 -3.421404 2.351180 -6.556547 29.111598 -2.054474 2.108453 0.127965 -88.374732 20.238207 -59.027690 3.132346 -27.542997 0.438668 0.000000 0.000000 0.000000 10.121198 -4.960460 -3.015125 5.298480 11.915338 -15.581593 12.340909 3.372871 0.010208 -46.007492 37.893428 104.043151 177.460568 73.522718 -177.747258 0.000000 0.000000 0.000000 
